<?xml version="1.0" encoding="UTF-8" standalone="no"?>
<svg
   width="868.14203"
   height="226.09711"
   viewBox="0 0 868.14203 226.09711"
   shape-rendering="geometricPrecision"
   version="1.1"
   id="svg20"
   sodipodi:docname="logo.svg"
   inkscape:export-filename="logo.svg"
   inkscape:export-xdpi="104.24831"
   inkscape:export-ydpi="104.24831"
   inkscape:version="1.2.2 (b0a8486541, 2022-12-01)"
   xmlns:inkscape="http://www.inkscape.org/namespaces/inkscape"
   xmlns:sodipodi="http://sodipodi.sourceforge.net/DTD/sodipodi-0.dtd"
   xmlns="http://www.w3.org/2000/svg"
   xmlns:svg="http://www.w3.org/2000/svg">
  <sodipodi:namedview
     id="namedview17"
     pagecolor="#ffffff"
     bordercolor="#000000"
     borderopacity="0.25"
     inkscape:showpageshadow="2"
     inkscape:pageopacity="0.0"
     inkscape:pagecheckerboard="0"
     inkscape:deskcolor="#d1d1d1"
     showgrid="false"
     inkscape:zoom="0.67585239"
     inkscape:cx="454.2412"
     inkscape:cy="149.44091"
     inkscape:window-width="1600"
     inkscape:window-height="815"
     inkscape:window-x="0"
     inkscape:window-y="24"
     inkscape:window-maximized="1"
     inkscape:current-layer="g2547" />
  <defs
     id="defs24" />
  <g
     fill-rule="evenodd"
     id="g18"
     transform="translate(-10.48412,-28.510431)">
    <g
       id="g1290"
       transform="translate(-7.2183975,7.4455249)">
      <g
         id="g1297">
        <path
           d="m 48.473859,236.53317 c -3.195872,1.0043 -8.231805,-0.0673 -11.422688,-1.08734 -5.11961,-1.63661 -9.084728,-5.06362 -13.035903,-8.7074 -2.820639,-2.6012 -6.059238,-6.19538 -6.30742,-10.0243 -0.152316,-2.3499 3.010591,-5.77228 3.010591,-5.77228 l 46.296829,-31.20342 c 0,0 7.786035,-6.36063 10.5,-10.5 3.241233,-4.94357 6.5,-16.5 6.5,-16.5 l 58.052592,42.33293 -6.2859,-2.24344 -6.0654,-1.40683 -4.70129,-0.68266 c -5.07236,-0.0151 0.16968,0.21005 -5,0 -5.10444,-0.27758 -9.63712,1.04188 -12,2 l -6.2447,2.62899 c 0,0 -10.541723,6.51464 -15.377434,10.36529 -5.1125,4.07106 -14.320803,13.39086 -14.320803,13.39086 -5.516942,6.13168 -12.643952,9.96027 -13.868118,11.44083 -2.659231,3.21618 -5.077248,6.45827 -9.730356,5.96877 z"
           style="fill:#fea11c;fill-opacity:0.988"
           id="path8" />
        <path
           d="m 52.247246,245.47585 c -3.262813,1.88379 -8.324998,2.00384 -11.231978,1.26258 -4.04715,-1.032 -7.71939,-3.41504 -11,-6 -3.707336,-2.9212 -7.359306,-6.29343 -9.5,-10.5 -2.112088,-4.15035 -2.809851,-13.57259 -2.809851,-13.57259 0,0 3.523851,7.20317 6.309851,10.07259 2.511631,2.58683 5.761078,4.4159 9,6 2.840722,1.38935 5.878555,2.49346 9,3 2.303204,0.37376 4.75972,0.65237 7,0 4.172812,-1.21513 7.504828,-4.41685 11,-7 11.979346,-8.85348 21.706445,-20.58826 34,-29 4.061784,-2.77923 8.410492,-5.22275 13.000002,-7 2.56326,-0.9926 5.27162,-1.66608 8,-2 4.96995,-0.60827 10.08881,-0.84069 15.0211,0.0212 4.35346,0.76076 12.4789,4.47879 12.4789,4.47879 0,0 -15.77985,-0.83724 -23.5,0.5 -5.19313,0.89952 -10.26546,2.68441 -15,5 -4.318563,2.11214 -8.282235,4.95216 -12.000002,8 -9.843039,8.06936 -17.339948,18.71245 -27,27 -4.705859,4.03725 -4.00795,4.6798 -12.768022,9.73743 z"
           style="fill:#ee2227;fill-opacity:0.988"
           id="path16" />
      </g>
      <path
         id="path511"
         style="font-variation-settings:'wdth' 75, 'wght' 800;fill:#ee2227;fill-opacity:0.988235;stroke:#ff0000;stroke-width:10.3216;stroke-opacity:0"
         transform="matrix(-0.93954518,0.34242497,-0.35479855,-0.93494277,0,0)"
         d="m -26.270065,-168.98647 c 1.411971,38.27067 -30.703885,72.221895 -77.365415,81.786734 -46.66153,9.564835 -92.24059,-5.205638 -115.14692,-38.677614 -20.12798,-29.4121 -13.91013,-78.83934 22.98228,-103.47147 36.89241,-24.63213 90.33093,-25.6966 128.73059,-2.56425" />
      <circle
         style="font-variation-settings:'wdth' 75, 'wght' 800;fill:#f2f2f2;fill-rule:evenodd;stroke:#ff0000;stroke-width:9.4;stroke-opacity:0"
         id="path455"
         cx="183.37648"
         cy="105.69043"
         r="26.723305" />
      <path
         d="m 109.08965,144.52342 c -10.672158,0.0443 -21.612997,0.33875 -31.926234,-2.40611 -11.598548,-3.08695 -24.57709,-6.24 -32.5,-15.5 -4.235691,-4.95051 -3.865509,-11.31124 -3,-17 0.851261,-5.59511 3.356297,-9.39612 7.789729,-15.086074 4.433432,-5.689949 12.448647,-12.501822 19.710271,-17.413927 7.975733,-5.395161 25.808948,-12.976093 25.808948,-12.976093 0,0 -13.729025,9.369557 -19.808948,14.976093 -6.079923,5.606536 -13.611559,11.431936 -16.5,18.500003 -2.888441,7.068058 -3.447196,14.917938 -1.125733,19.764208 2.321464,4.84628 8.876277,8.07216 8.876277,8.07216 0,0 -3.364339,-7.68216 -3.969013,-10.99183 -0.604674,-3.30967 -0.1266,-8.49932 -0.1266,-8.49932 0,0 5.409307,9.58216 9.699558,12.77117 7.180126,5.33709 12.961393,6.58106 19.977124,8.18031 6.566313,1.49682 9.917871,2.29556 20.168381,1.2033 10.25051,-1.09226 30.93577,-2.08242 40.11693,-11.18496 0.76529,4.85422 1.74341,7.65509 4.83014,10.92762 3.63479,3.62 6.3272,5.59124 11.17279,7.29143 -4.67797,1.03753 -18.31771,5.00862 -28.28351,6.78437 -9.96579,1.77574 -20.57079,2.54475 -30.91011,2.58765 z"
         style="fill:#0b85d7;fill-opacity:0.984"
         id="path10" />
    </g>
    <g
       id="g2547"
       transform="translate(-13.909294,12.472256)">
      <g
         aria-label="Spin"
         id="text1491-7"
         style="font-size:42.6667px;font-family:Dyuthi;-inkscape-font-specification:'Dyuthi, @wght=800,wdth=75.0';font-variation-settings:'wdth' 75, 'wght' 800;fill:#ee2227;fill-opacity:0.988235;stroke:#ff0000;stroke-width:9.4;stroke-opacity:0">
        <g
           id="path854">
          <path
             style="color:#000000;-inkscape-font-specification:'Noto Sans Display, Bold ';fill:#0b4a8d;stroke:none;stroke-opacity:1;-inkscape-stroke:none"
             d="m 379.87294,136.05439 q 0,10.76663 -7.25332,17.22662 -7.13997,6.34664 -21.6466,6.34664 -6.79998,0 -12.12663,-1.24666 -5.32665,-1.24666 -10.3133,-3.62666 v -15.97995 q 5.77998,2.49333 11.78663,4.64665 6.11998,2.04 11.55997,2.04 5.21331,0 7.47997,-2.37999 2.38,-2.49333 2.38,-6.23332 0,-4.53332 -3.62666,-7.36664 -3.62666,-2.83333 -10.6533,-5.66665 -4.53332,-1.92667 -8.72664,-4.75999 -4.19332,-2.83333 -6.91332,-7.47998 -2.60665,-4.75998 -2.60665,-12.126629 0,-10.879968 7.36664,-16.886617 7.47998,-6.119982 19.83328,-6.119982 6.68664,0 12.35329,1.473329 5.77999,1.473329 10.9933,4.193321 l -5.77998,13.373294 q -4.98665,-2.26666 -9.51997,-3.513323 -4.41999,-1.246663 -8.61331,-1.246663 -4.19332,0 -6.45998,2.26666 -2.15333,2.26666 -2.15333,5.893316 0,2.833324 1.47333,4.873314 1.58666,1.92667 4.87332,3.85333 3.28666,1.81332 8.38664,4.41998 5.66665,2.83333 9.63331,6.00665 4.07999,3.05999 6.11998,7.36665 2.15333,4.30665 2.15333,10.6533 z"
             id="path865" />
          <path
             style="color:#000000;-inkscape-font-specification:'Noto Sans Display, Bold ';fill:#ff0000;fill-opacity:0;stroke:none;stroke-opacity:1;-inkscape-stroke:none"
             d="m 356.41211,71.742187 c -9.01167,10e-7 -16.84052,2.298669 -22.80859,7.181641 -5.98395,4.882715 -9.08985,12.212397 -9.08985,20.523438 0,5.465454 0.95522,10.315544 3.1836,14.384764 l 0.0332,0.0586 0.0332,0.0586 c 2.13489,3.64709 4.94537,6.70775 8.33789,9 3.03707,2.05207 6.21415,3.78661 9.51953,5.1914 l 0.041,0.0156 0.0391,0.0176 c 4.44058,1.79055 7.66132,3.56151 9.51758,5.01172 1.45946,1.1402 1.82031,1.89323 1.82031,3.66211 0,1.49635 -0.30384,2.17508 -1.08008,2.98828 v 0.002 l -0.002,0.002 c -0.27005,0.28356 -1.3178,0.92188 -4.07812,0.92188 -3.02621,0 -6.36222,-0.57003 -10.02735,-1.78711 -3.89348,-1.39707 -7.71344,-2.90074 -11.45703,-4.51563 l -6.56055,-2.83007 v 26.08984 l 2.67383,1.27734 c 3.62363,1.72947 7.38717,3.05276 11.26758,3.96094 3.9832,0.93224 8.37673,1.37109 13.19727,1.37109 10.35649,0 18.82823,-2.254 24.76953,-7.53515 h 0.002 l 0.002,-0.002 c 5.80398,-5.16917 8.82618,-12.50315 8.82618,-20.73633 0,-4.7433 -0.80024,-9.0201 -2.63282,-12.70703 -1.68806,-3.54408 -4.25066,-6.60463 -7.48437,-9.03907 -2.94822,-2.34822 -6.4068,-4.49441 -10.38672,-6.48437 l 0.0371,0.0176 c -3.33348,-1.70378 -6.04892,-3.1353 -8.16406,-4.30078 -1.79491,-1.05486 -2.89665,-2.00944 -3.45899,-2.65821 -0.33799,-0.49516 -0.54883,-0.988141 -0.54883,-2.001951 0,-1.445109 0.28104,-2.014582 0.82227,-2.599609 0.4854,-0.471281 1.18608,-0.859375 3.08984,-0.859375 2.32978,0 4.76498,0.34462 7.33789,1.070312 l 0.0156,0.0039 0.0137,0.0039 c 2.74485,0.754832 5.69077,1.836357 8.82227,3.259766 l 4.35937,1.982424 9.41211,-21.779299 -3.87305,-2.021485 c -3.79198,-1.97843 -7.79583,-3.506763 -11.98437,-4.576172 l -0.008,-0.002 c -4.21132,-1.094164 -8.72925,-1.621093 -13.5293,-1.621094 z m 0,9.398438 c 4.11256,0 7.82984,0.453337 11.17187,1.322266 l 0.01,0.0039 0.0117,0.002 c 2.07352,0.528545 4.06115,1.228306 6.00586,2.017578 l -2.18555,5.058594 c -1.90698,-0.724127 -3.86012,-1.594574 -5.70117,-2.101563 -3.31649,-0.934379 -6.62141,-1.421875 -9.87891,-1.421875 -3.64239,0 -7.24738,1.106759 -9.7832,3.642578 l -0.043,0.04297 -0.041,0.04297 c -2.29765,2.418576 -3.44532,5.782882 -3.44532,9.130859 0,2.703551 0.77637,5.427741 2.36328,7.625001 l 0.0879,0.12109 0.0937,0.11524 c 1.58142,1.9203 3.6289,3.45669 6.125,4.91992 l 0.0527,0.0312 0.0527,0.0293 c 2.25738,1.24544 5.09061,2.73766 8.51953,4.49023 l 0.0176,0.01 0.0195,0.01 c 3.54236,1.77118 6.47409,3.61287 8.79883,5.47266 l 0.0566,0.0449 0.0586,0.0449 c 2.17409,1.63057 3.66794,3.45437 4.69336,5.61914 l 0.0215,0.0449 0.0215,0.0449 c 1.02255,2.04508 1.65821,4.85123 1.65821,8.55078 0,6.1223 -1.81258,10.27265 -5.67969,13.71679 -3.57907,3.17903 -9.53903,5.15625 -18.52148,5.15625 -4.2461,0 -7.93569,-0.39307 -11.05469,-1.12304 -2.28621,-0.53507 -4.50142,-1.30454 -6.68555,-2.18555 v -5.94336 c 1.83706,0.71836 3.63357,1.50013 5.50195,2.16992 l 0.0488,0.0176 0.0508,0.0156 c 4.47633,1.49211 8.83077,2.28125 13.04493,2.28125 4.18877,0 8.12888,-0.94742 10.88086,-3.83399 l 0.002,-0.002 c 2.39587,-2.51109 3.67773,-5.98719 3.67773,-9.47656 0,-4.27555 -2.05751,-8.43276 -5.43359,-11.07032 -2.97928,-2.32756 -6.8608,-4.33506 -11.78906,-6.32226 l 0.082,0.0332 c -2.73904,-1.16409 -5.37958,-2.60244 -7.9336,-4.32812 -2.17766,-1.4714 -3.95998,-3.38398 -5.44336,-5.89649 -1.23329,-2.27503 -2.00781,-5.48744 -2.00781,-9.816404 0,-6.192543 1.80277,-10.117993 5.63672,-13.244141 l 0.002,-0.002 0.004,-0.002 c 4.00522,-3.276996 9.39609,-5.058594 16.85547,-5.058594 z"
             id="path867" />
        </g>
        <g
           id="path856">
          <path
             style="color:#000000;-inkscape-font-specification:'Noto Sans Display, Bold ';fill:#0b4a8d;stroke:none;stroke-opacity:1;-inkscape-stroke:none"
             d="m 425.65939,95.481176 q 9.74664,0 15.52662,8.159974 5.89332,8.04664 5.89332,23.79993 0,15.75329 -6.23332,24.0266 -6.23331,8.15997 -15.75328,8.15997 -6.23332,0 -9.85997,-2.37999 -3.51333,-2.49333 -5.66665,-5.55332 h -0.79334 q 0.34,2.15333 0.56667,4.53332 0.22667,2.26666 0.22667,4.53332 v 24.93326 H 391.43283 V 96.614506 h 14.73329 l 2.49332,8.046644 h 0.90667 q 2.26666,-3.73999 6.00664,-6.459982 3.85333,-2.719992 10.08664,-2.719992 z m -6.45998,13.486624 q -5.32665,0 -7.47998,4.07999 -2.15332,4.07999 -2.15332,12.46663 v 1.81333 q 0,8.95331 2.03999,13.82662 2.15333,4.75999 7.81998,4.75999 4.64665,0 6.91331,-4.75999 2.26666,-4.87331 2.26666,-13.93995 0,-18.24662 -9.40664,-18.24662 z"
             id="path871" />
          <path
             style="color:#000000;-inkscape-font-specification:'Noto Sans Display, Bold ';fill:#ff0000;fill-opacity:0;stroke:none;stroke-opacity:1;-inkscape-stroke:none"
             d="m 425.66016,90.78125 c -4.83918,0 -9.25254,1.078199 -12.79688,3.580078 l -0.0273,0.01953 -0.0274,0.01953 c -0.69017,0.501944 -1.25597,1.1163 -1.89062,1.669921 l -1.28711,-4.15625 h -22.89844 v 98.480468 h 27.5332 v -28.36328 c 3.13373,1.59285 6.77368,2.29687 10.82618,2.29687 7.68949,0 14.63207,-3.65059 19.48828,-10.00781 l 0.01,-0.0117 0.01,-0.0117 c 5.01827,-6.66061 7.17969,-15.73338 7.17969,-26.85546 0,-11.07024 -2.00531,-20.00184 -6.78125,-26.54297 -4.57392,-6.438909 -11.54018,-10.11719 -19.33789,-10.11719 z m 0,9.40039 c 5.18612,0 8.55835,1.75264 11.6914,6.17578 l 0.0215,0.0312 0.0215,0.0293 c 3.06497,4.18486 4.98438,11.10734 4.98438,21.02344 0,9.8783 -1.99276,16.82063 -5.28321,21.1914 -0.001,0.002 -0.003,0.004 -0.004,0.006 -3.44855,4.50331 -7.00596,6.28906 -12,6.28906 -3.52415,0 -5.83867,-0.69129 -7.22852,-1.58789 -1.85494,-1.33033 -3.26358,-2.73142 -4.32226,-4.19531 1.83294,0.88007 3.81941,1.4707 5.88476,1.4707 4.70264,0 9.10916,-3.14056 11.15625,-7.43945 l 0.01,-0.0195 0.01,-0.0195 c 1.98116,-4.25948 2.70508,-9.48579 2.70508,-15.92188 0,-6.48603 -0.72247,-11.66444 -2.875,-15.83984 -2.15253,-4.1754 -6.5774,-7.10742 -11.23242,-7.10742 -1.34278,0 -2.66211,0.2429 -3.94141,0.61719 0.87841,-1.02051 1.85763,-1.98462 3.04688,-2.85352 1.59285,-1.11792 3.89607,-1.84961 7.35547,-1.84961 z m -29.52735,1.13281 h 6.56836 l 2.49414,8.04688 h 3.48047 c -0.37864,0.49329 -0.81981,0.93614 -1.11328,1.49219 -2.05603,3.89564 -2.69727,8.66681 -2.69727,14.66015 v 1.81446 c 0,6.32582 0.65039,11.44605 2.40625,15.64062 l 0.0254,0.0625 0.0274,0.0606 c 0.69174,1.5291 1.77964,2.78737 3.00781,3.90234 h -7.06055 l 0.85938,5.43359 c 0.21016,1.331 0.38653,2.74706 0.5293,4.2461 l 0.002,0.01 v 0.0117 c 0.13568,1.35676 0.20312,2.71197 0.20312,4.06641 v 20.23242 h -8.73242 z m 23.06641,12.35352 c 1.61607,0 1.89394,0.10882 2.87695,2.01562 0.98301,1.90681 1.83008,5.85288 1.83008,11.53125 0,5.64094 -0.78445,9.69629 -1.82227,11.9375 -0.96179,2.01557 -1.17326,2.0625 -2.6582,2.0625 -2.42504,0 -2.73108,-0.25742 -3.50195,-1.94922 -0.95272,-2.31289 -1.6582,-6.36913 -1.65821,-11.93749 v -1.81446 c 10e-6,-5.18884 0.79627,-8.72715 1.61133,-10.27148 0.68885,-1.30519 0.97117,-1.57422 3.32227,-1.57422 z"
             id="path873" />
        </g>
        <g
           id="path858">
          <path
             style="color:#000000;-inkscape-font-specification:'Noto Sans Display, Bold ';fill:#0b4a8d;stroke:none;stroke-opacity:1;-inkscape-stroke:none"
             d="m 468.61264,72.361244 q 3.96665,0 6.79998,1.813328 2.83332,1.699995 2.83332,6.459981 0,4.646653 -2.83332,6.459981 -2.83333,1.813328 -6.79998,1.813328 -4.07999,0 -6.91332,-1.813328 -2.83332,-1.813328 -2.83332,-6.459981 0,-4.759986 2.83332,-6.459981 2.83333,-1.813328 6.91332,-1.813328 z m 8.9533,24.253262 V 158.49432 H 459.43266 V 96.614506 Z"
             id="path877" />
          <path
             style="color:#000000;-inkscape-font-specification:'Noto Sans Display, Bold ';fill:#ff0000;fill-opacity:0;stroke:none;stroke-opacity:1;-inkscape-stroke:none"
             d="m 468.61328,67.662109 c -3.39239,0 -6.64509,0.792061 -9.38476,2.527344 -3.50543,2.140998 -5.0625,6.363009 -5.0625,10.445313 0,4.053047 1.57588,8.226529 5,10.417968 0.61138,0.391284 1.3291,0.563658 1.98828,0.861328 h -6.42188 v 71.279298 h 27.5332 V 91.914062 h -4.69921 -1.59571 c 0.65522,-0.297519 1.36641,-0.472078 1.97461,-0.861328 3.42412,-2.191439 5,-6.364921 5,-10.417968 0,-4.082304 -1.55707,-8.304315 -5.0625,-10.445313 -2.71562,-1.72024 -5.93263,-2.527344 -9.26953,-2.527344 z m 0,9.398438 c 1.92824,0 3.2155,0.400188 4.26563,1.072265 l 0.0566,0.03711 0.0586,0.03516 c 0.22938,0.137627 0.55273,0.188904 0.55273,2.429688 0,2.142483 -0.31433,2.275624 -0.66796,2.501953 -1.05013,0.672077 -2.33739,1.070312 -4.26563,1.070312 -2.02369,0 -3.3547,-0.413573 -4.38086,-1.070312 -0.35364,-0.226329 -0.66601,-0.35947 -0.66601,-2.501953 0,-2.240784 0.3214,-2.292061 0.55078,-2.429688 l 0.0586,-0.03516 0.0566,-0.03711 c 1.02616,-0.656738 2.35717,-1.072265 4.38086,-1.072265 z m -4.48047,24.253903 h 8.73242 v 52.48047 h -8.73242 z"
             id="path879" />
        </g>
        <g
           id="path860">
          <path
             style="color:#000000;-inkscape-font-specification:'Noto Sans Display, Bold ';fill:#0b4a8d;stroke:none;stroke-opacity:1;-inkscape-stroke:none"
             d="m 527.88575,95.481176 q 9.2933,0 14.95995,5.439984 5.77998,5.32665 5.77998,17.22662 v 40.34654 H 530.4924 V 122.3411 q 0,-6.68665 -2.03999,-9.97331 -1.92666,-3.39999 -6.23331,-3.39999 -6.57332,0 -8.83998,5.32665 -2.26666,5.21332 -2.26666,15.07329 v 29.12658 H 492.97918 V 96.614506 h 13.71329 l 2.49333,7.933314 h 0.79333 q 2.83333,-4.75999 7.47998,-6.913317 4.64665,-2.153327 10.42664,-2.153327 z"
             id="path883" />
          <path
             style="color:#000000;-inkscape-font-specification:'Noto Sans Display, Bold ';fill:#ff0000;fill-opacity:0;stroke:none;stroke-opacity:1;-inkscape-stroke:none"
             d="m 527.88672,90.78125 c -4.43698,0 -8.632,0.841707 -12.4043,2.589844 -1.47023,0.681325 -2.80699,1.579617 -4.07226,2.576172 l -1.26758,-4.033204 H 488.2793 v 71.279298 h 27.5332 v -33.82617 c 0,-6.21316 0.79785,-10.71729 1.87695,-13.19922 l 0.008,-0.0156 0.006,-0.0176 c 0.87016,-2.04488 1.40296,-2.4668 4.51563,-2.4668 1.63426,0 1.60065,0.0578 2.14453,1.01758 l 0.0469,0.082 0.0488,0.0781 c 0.60684,0.97769 1.33399,3.5163 1.33399,7.4961 v 40.85156 h 27.5332 v -45.04492 c 0,-8.67626 -2.1546,-15.91668 -7.26758,-20.650393 -4.70001,-4.490168 -11.07921,-6.716797 -18.17187,-6.716797 z m 0,9.40039 c 5.27845,0 8.85133,1.39314 11.70312,4.13086 l 0.0352,0.0332 0.0352,0.0312 c 2.57072,2.3691 4.26562,6.59913 4.26562,13.77149 v 35.64648 h -8.73242 V 122.3418 c 0,-4.88642 -0.63247,-8.9612 -2.69531,-12.34571 -2.03786,-3.53781 -6.19468,-5.72851 -10.2793,-5.72851 -2.78118,0 -5.48279,0.77416 -7.77539,2.14648 1.38294,-2.10928 2.95804,-3.57297 4.99219,-4.51562 2.42323,-1.12297 5.1815,-1.7168 8.45117,-1.7168 z m -30.20703,1.13281 h 5.5625 l 2.49414,7.9336 h 5.35742 c -0.82012,0.95771 -1.53,2.01598 -2.03516,3.20117 -1.9341,4.4644 -2.64648,9.99872 -2.64648,16.91797 v 24.42773 h -8.73242 z"
             id="path885" />
        </g>
      </g>
      <g
         aria-label="Rank"
         id="text1491-6"
         style="font-size:42.6667px;font-family:Dyuthi;-inkscape-font-specification:'Dyuthi, @wght=800,wdth=75.0';font-variation-settings:'wdth' 75, 'wght' 800;fill:#ee2227;fill-opacity:0.988235;stroke:#ff0000;stroke-width:9.4;stroke-opacity:0">
        <g
           id="path887">
          <path
             style="color:#000000;-inkscape-font-specification:'Noto Sans Display, Bold ';fill:#639a18;stroke:none;stroke-opacity:1;-inkscape-stroke:none"
             d="m 588.96285,78.381065 q 30.59991,0 30.59991,24.253265 0,8.27331 -3.85332,13.48662 -3.85332,5.21332 -9.63331,7.93331 l 22.21327,35.24657 h -20.51327 l -17.11328,-31.05325 h -6.91332 v 31.05325 H 565.38959 V 78.381065 Z m -0.79333,14.053292 h -4.41999 v 21.873273 h 4.53332 q 12.80663,0 12.80663,-11.21997 0,-5.779984 -3.17332,-8.159977 -3.05999,-2.493326 -9.74664,-2.493326 z"
             id="path898" />
          <path
             style="color:#000000;-inkscape-font-specification:'Noto Sans Display, Bold ';fill:#ff0000;fill-opacity:0;stroke:none;stroke-opacity:1;-inkscape-stroke:none"
             d="M 560.68945,73.681641 V 164 h 27.75977 V 133.96875 L 605,164 h 31.80664 l -24.27148,-38.51367 c 2.6053,-1.84648 5.01509,-3.95022 6.95312,-6.57227 3.27526,-4.43122 4.77539,-10.03408 4.77539,-16.27929 0,-9.072735 -3.13631,-16.883423 -9.43164,-21.873051 -6.29532,-4.989629 -15.04832,-7.080078 -25.86914,-7.080078 z m 9.40039,9.40039 h 18.87305 c 9.5791,0 16.12662,1.950137 20.03125,5.044922 3.90464,3.094785 5.86914,7.411716 5.86914,14.507817 0,4.78585 -1.07109,8.17351 -2.93359,10.69336 -2.13344,2.88641 -4.68482,4.98058 -7.85547,6.47265 l -4.8086,2.26367 20.50586,32.53711 h -9.21875 l -17.11328,-31.05468 h -14.39062 v 31.05468 h -8.95899 z m 8.95899,4.652344 v 31.273435 h 9.23437 c 4.95516,0 9.39858,-1.07728 12.70117,-3.9707 3.3026,-2.89342 4.80469,-7.31513 4.80469,-11.94922 0,-4.684611 -1.46691,-9.174925 -4.99609,-11.863281 -3.3279,-2.665816 -7.62429,-3.490234 -12.62305,-3.490234 z m 9.40039,9.429687 c 3.65389,0.04849 5.78035,0.821461 6.49805,1.40625 l 0.0742,0.06055 0.0742,0.05664 c 0.65452,0.490889 1.29297,1.4072 1.29297,4.40039 0,2.84588 -0.63137,4.03234 -1.59765,4.87891 -0.94734,0.82997 -2.8916,1.59087 -6.3418,1.62109 z"
             id="path900" />
        </g>
        <g
           id="path889">
          <path
             style="color:#000000;-inkscape-font-specification:'Noto Sans Display, Bold ';fill:#639a18;stroke:none;stroke-opacity:1;-inkscape-stroke:none"
             d="m 661.60934,96.174346 q 11.44663,0 17.67994,5.439984 6.34665,5.32665 6.34665,16.43328 v 41.25322 h -12.57996 l -3.51332,-8.38664 h -0.45334 q -3.73998,4.98665 -7.93331,7.25331 -4.07998,2.26666 -11.44663,2.26666 -7.59331,0 -12.80663,-4.75999 -5.09998,-4.87332 -5.09998,-14.84662 0,-9.85997 6.45998,-14.50663 6.57331,-4.75998 19.26661,-5.21331 l 9.9733,-0.34 v -2.72 q 0,-4.87331 -2.15332,-7.13997 -2.15333,-2.26666 -5.89332,-2.26666 -3.85332,0 -8.04664,1.35999 -4.19332,1.24666 -8.38665,3.17333 l -5.55331,-11.44664 q 4.98665,-2.606656 10.9933,-4.079985 6.11998,-1.473329 13.14663,-1.473329 z m 0.56666,34.679894 q -6.57331,0.22667 -9.2933,2.94666 -2.60666,2.71999 -2.60666,7.13998 0,3.85332 1.81332,5.55332 1.92667,1.58666 4.98666,1.58666 4.30665,0 7.36664,-3.17332 3.17333,-3.28666 3.17333,-9.17998 v -5.09998 z"
             id="path904" />
          <path
             style="color:#000000;-inkscape-font-specification:'Noto Sans Display, Bold ';fill:#ff0000;fill-opacity:0;stroke:none;stroke-opacity:1;-inkscape-stroke:none"
             d="m 661.60937,91.474609 c -5.01292,0 -9.76816,0.525496 -14.24609,1.603516 l -0.01,0.002 -0.01,0.002 c -4.335,1.063303 -8.36193,2.552206 -12.05078,4.480469 l -4.04297,2.113281 9.55273,19.691409 4.18164,-1.92188 c 2.60494,-1.19686 5.19188,-2.17486 7.76368,-2.93945 l 0.0566,-0.0156 0.0547,-0.0176 c 2.39369,-0.77633 4.57977,-1.13086 6.59571,-1.13086 1.54383,0 1.9866,0.27671 2.48633,0.80273 0.18734,0.19721 0.45788,0.96484 0.65039,2.08789 l -5.22657,0.17774 h -0.004 c -9.0135,0.32191 -16.35618,2.12672 -21.84375,6.0957 -7.6e-4,5.5e-4 -0.001,0.001 -0.002,0.002 -5.58444,4.01816 -8.4121,10.72161 -8.4121,18.32031 0,7.45 1.99492,13.8889 6.55273,18.24415 l 0.0371,0.0371 0.041,0.0352 c 4.31464,3.93945 9.93032,5.99024 15.97461,5.99024 5.37979,0 9.93685,-0.76317 13.70118,-2.84571 1.57786,-0.85502 3.04307,-1.97449 4.45898,-3.20898 L 669.92969,164 h 20.40625 v -45.95312 c 0,-8.28334 -2.55695,-15.41571 -7.99805,-20.001958 -5.22611,-4.541022 -12.37275,-6.570313 -20.72852,-6.570313 z m 0,9.400391 c 6.88653,0 11.50814,1.59175 14.58985,4.28125 l 0.0332,0.0293 0.0352,0.0293 c 2.99896,2.51699 4.66797,6.32286 4.66797,12.83204 v 36.55468 h -4.75196 l -3.51367,-8.38672 h -3.34961 c 2.00981,-2.96197 2.9961,-6.60393 2.9961,-10.48632 v -10 l -10.30274,0.42773 c -0.0115,3.9e-4 -0.0218,0.002 -0.0332,0.002 -4.99252,0.17624 -9.32322,1.21971 -12.42188,4.31836 l -0.0351,0.0371 -0.0332,0.0352 c -2.61771,2.73152 -3.91406,6.52199 -3.91406,10.39258 0,3.30612 0.79732,6.63724 3.29883,8.98242 l 0.10937,0.10156 0.11719,0.0977 c 2.22699,1.83398 5.12228,2.6582 7.97461,2.6582 1.64172,0 3.24318,-0.35019 4.78125,-0.88281 -0.99864,0.88738 -1.98312,1.61994 -2.93555,2.13476 l -0.0254,0.0117 -0.0234,0.0137 c -1.67024,0.92792 -4.73502,1.67579 -9.16407,1.67578 -4.05473,0 -6.96233,-1.11582 -9.58593,-3.49218 -2.22468,-2.14466 -3.6211,-5.59247 -3.6211,-11.41407 0,-5.54687 1.47852,-8.51383 4.50586,-10.6914 l 0.006,-0.004 0.006,-0.006 c 3.27446,-2.37116 8.76969,-4.03907 16.66992,-4.32226 l 14.51367,-0.49414 v -7.26367 c 0,-3.94112 -0.85328,-7.64644 -3.44726,-10.37696 -2.37138,-2.49619 -5.85796,-3.72851 -9.30078,-3.72851 -3.09943,0 -6.25354,0.54766 -9.42774,1.57031 -1.55646,0.46393 -3.09652,1.16699 -4.64453,1.75781 l -1.56445,-3.22461 c 1.81738,-0.70293 3.71763,-1.32899 5.75976,-1.83008 0.001,-3.5e-4 0.002,-0.002 0.004,-0.002 3.67689,-0.88345 7.67881,-1.33789 12.02734,-1.33789 z m 1.30665,34.65234 v 0.20118 c 0,3.08528 -0.71495,4.7328 -1.85547,5.91406 v 0.002 h -0.002 c -1.27523,1.32247 -2.26571,1.73633 -3.98242,1.73633 -1.10279,0 -1.46522,-0.22052 -1.79492,-0.46289 0.0183,0.0108 -0.30469,-0.27142 -0.30469,-1.97656 0,-1.98538 0.43676,-2.95039 1.26367,-3.83204 0.5397,-0.52323 2.3735,-1.43017 6.09766,-1.55859 h 0.0176 0.0156 z"
             id="path906" />
        </g>
        <g
           id="path891">
          <path
             style="color:#000000;-inkscape-font-specification:'Noto Sans Display, Bold ';fill:#639a18;stroke:none;stroke-opacity:1;-inkscape-stroke:none"
             d="m 735.61574,96.287679 q 9.29331,0 14.95996,5.439981 5.77998,5.32665 5.77998,17.22662 v 40.34655 H 738.2224 V 123.1476 q 0,-6.68665 -2.03999,-9.9733 -1.92666,-3.39999 -6.23332,-3.39999 -6.57331,0 -8.83997,5.32665 -2.26666,5.21331 -2.26666,15.07329 v 29.12658 H 700.70918 V 97.421009 h 13.71329 l 2.49333,7.933311 h 0.79333 q 2.83332,-4.75999 7.47998,-6.913314 4.64665,-2.153327 10.42663,-2.153327 z"
             id="path910" />
          <path
             style="color:#000000;-inkscape-font-specification:'Noto Sans Display, Bold ';fill:#ff0000;fill-opacity:0;stroke:none;stroke-opacity:1;-inkscape-stroke:none"
             d="m 735.61523,91.587891 c -4.43697,0 -8.63005,0.839754 -12.40234,2.58789 -1.4707,0.681541 -2.80861,1.581161 -4.07422,2.578125 l -1.26758,-4.033203 H 696.00977 V 164 h 27.5332 v -33.82617 c 0,-6.21316 0.79785,-10.7173 1.87695,-13.19922 l 0.006,-0.0156 0.008,-0.0176 c 0.87016,-2.04488 1.40297,-2.4668 4.51563,-2.4668 1.63426,0 1.60065,0.0578 2.14453,1.01758 l 0.0449,0.0801 0.0508,0.0801 c 0.60684,0.97768 1.33203,3.5163 1.33203,7.4961 V 164 h 27.53516 v -45.04492 c 0,-8.67395 -2.15363,-15.9127 -7.26367,-20.646486 -4.7005,-4.493443 -11.0825,-6.720703 -18.17774,-6.720703 z m 0,9.400389 c 5.27847,0 8.85329,1.39314 11.70508,4.13086 l 0.0352,0.0312 0.0352,0.0332 c 2.57073,2.3691 4.26563,6.59913 4.26563,13.77149 v 35.64648 h -8.73438 v -31.45312 c 0,-4.88641 -0.63051,-8.9612 -2.69335,-12.34571 -2.03786,-3.53781 -6.19467,-5.72851 -10.2793,-5.72851 -2.78117,0 -5.48279,0.77416 -7.77539,2.14648 1.38294,-2.10928 2.95804,-3.57297 4.99219,-4.51562 2.42323,-1.12297 5.17956,-1.7168 8.44921,-1.7168 z m -30.20507,1.13281 h 5.5625 l 2.49414,7.9336 h 5.35742 c -0.81973,0.95728 -1.53008,2.01272 -2.03516,3.19726 -1.93517,4.46497 -2.64648,10.00092 -2.64648,16.92188 v 24.42773 h -8.73242 z"
             id="path912" />
        </g>
        <g
           id="path893">
          <path
             style="color:#000000;-inkscape-font-specification:'Noto Sans Display, Bold ';fill:#639a18;stroke:none;stroke-opacity:1;-inkscape-stroke:none"
             d="m 789.56232,111.70097 q 0,3.51332 -0.34,7.02664 -0.22666,3.39999 -0.68,6.91332 h 0.34 q 0.90667,-2.38 2.83333,-4.75999 1.92666,-2.37999 3.73999,-4.64665 l 14.84662,-18.813281 h 20.28661 l -21.87327,26.859921 23.11993,35.0199 h -20.73994 l -14.84662,-25.0466 -6.68665,5.77999 v 19.26661 H 771.42904 V 73.167747 h 18.13328 z"
             id="path916" />
          <path
             style="color:#000000;-inkscape-font-specification:'Noto Sans Display, Bold ';fill:#ff0000;fill-opacity:0;stroke:none;stroke-opacity:1;-inkscape-stroke:none"
             d="M 766.72852,68.466797 V 164 h 27.5332 v -21.81641 l 0.80859,-0.69922 L 808.41797,164 h 32.15234 L 814.53906,124.57227 840.47852,92.720703 H 808.02344 L 794.26172,110.16016 V 68.466797 Z m 9.40039,9.40039 h 8.73437 v 33.833983 c 0,2.1906 -0.10616,4.38152 -0.31836,6.57422 l -0.008,0.0703 -0.004,0.0684 c -0.14442,2.16636 -0.36202,4.37503 -0.65234,6.625 l -0.68359,5.30274 h 8.92382 l 1.15235,-3.02735 c 0.39571,-1.03874 1.06648,-2.20516 2.0957,-3.47656 1.28984,-1.59333 2.54101,-3.1494 3.75586,-4.66797 l 0.01,-0.0117 13.44531,-17.03711 h 8.12109 l -17.81055,21.86914 20.21094,30.61133 h -9.32812 l -16.34766,-27.57812 -12.5625,10.86133 v 16.71679 h -8.73437 z m 17.7832,41.173833 -0.0117,0.13867 c 0.001,-0.013 7e-4,-0.026 0.002,-0.0391 0.002,-0.0328 0.008,-0.0669 0.01,-0.0996 z"
             id="path918" />
        </g>
      </g>
    </g>
  </g>
</svg>
